<?xml version="1.0"?>
<!-- Generated by SVGo and Plotinum VG -->
<svg width="438pt" height="311.25pt" viewBox="0 0 438 311.25"
	xmlns="http://www.w3.org/2000/svg"
	xmlns:xlink="http://www.w3.org/1999/xlink">
<g transform="scale(1, -1) translate(0, -311.25)">
<text x="142.29" y="-299.73" transform="scale(1, -1)"
	style="font-family:Helvetica;font-weight:normal;font-style:normal;font-size:12px">Hippocampus Run Stats Plot</text>
<text x="240.45" y="-3.8789" transform="scale(1, -1)"
	style="font-family:Helvetica;font-weight:normal;font-style:normal;font-size:12px">Params</text>
<g transform="rotate(45)">
<text x="41.997" y="9.5682" transform="scale(1, -1)"
	style="font-family:Helvetica;font-weight:normal;font-style:normal;font-size:10px">MedHip_List020</text>
</g>
<g transform="rotate(45)">
<text x="62.842" y="30.414" transform="scale(1, -1)"
	style="font-family:Helvetica;font-weight:normal;font-style:normal;font-size:10px">MedHip_List040</text>
</g>
<g transform="rotate(45)">
<text x="83.688" y="51.259" transform="scale(1, -1)"
	style="font-family:Helvetica;font-weight:normal;font-style:normal;font-size:10px">MedHip_List050</text>
</g>
<g transform="rotate(45)">
<text x="104.53" y="72.105" transform="scale(1, -1)"
	style="font-family:Helvetica;font-weight:normal;font-style:normal;font-size:10px">MedHip_List060</text>
</g>
<g transform="rotate(45)">
<text x="125.38" y="92.951" transform="scale(1, -1)"
	style="font-family:Helvetica;font-weight:normal;font-style:normal;font-size:10px">MedHip_List070</text>
</g>
<g transform="rotate(45)">
<text x="146.22" y="113.8" transform="scale(1, -1)"
	style="font-family:Helvetica;font-weight:normal;font-style:normal;font-size:10px">MedHip_List080</text>
</g>
<g transform="rotate(45)">
<text x="161.52" y="134.64" transform="scale(1, -1)"
	style="font-family:Helvetica;font-weight:normal;font-style:normal;font-size:10px">SmallHip_List020</text>
</g>
<g transform="rotate(45)">
<text x="182.36" y="155.49" transform="scale(1, -1)"
	style="font-family:Helvetica;font-weight:normal;font-style:normal;font-size:10px">SmallHip_List040</text>
</g>
<g transform="rotate(45)">
<text x="203.21" y="176.33" transform="scale(1, -1)"
	style="font-family:Helvetica;font-weight:normal;font-style:normal;font-size:10px">SmallHip_List050</text>
</g>
<g transform="rotate(45)">
<text x="224.06" y="197.18" transform="scale(1, -1)"
	style="font-family:Helvetica;font-weight:normal;font-style:normal;font-size:10px">SmallHip_List060</text>
</g>
<g transform="rotate(45)">
<text x="244.9" y="218.02" transform="scale(1, -1)"
	style="font-family:Helvetica;font-weight:normal;font-style:normal;font-size:10px">SmallHip_List070</text>
</g>
<g transform="rotate(45)">
<text x="265.75" y="238.87" transform="scale(1, -1)"
	style="font-family:Helvetica;font-weight:normal;font-style:normal;font-size:10px">SmallHip_List080</text>
</g>
<g transform="rotate(90)">
<text x="145.98" y="11.52" transform="scale(1, -1)"
	style="font-family:Helvetica;font-weight:normal;font-style:normal;font-size:12px">FirstZero:Mean</text>
</g>
<text x="20.96" y="-77.653" transform="scale(1, -1)"
	style="font-family:Helvetica;font-weight:normal;font-style:normal;font-size:10px">0</text>
<text x="15.398" y="-147.19" transform="scale(1, -1)"
	style="font-family:Helvetica;font-weight:normal;font-style:normal;font-size:10px">10</text>
<text x="15.398" y="-216.72" transform="scale(1, -1)"
	style="font-family:Helvetica;font-weight:normal;font-style:normal;font-size:10px">20</text>
<text x="15.398" y="-286.25" transform="scale(1, -1)"
	style="font-family:Helvetica;font-weight:normal;font-style:normal;font-size:10px">30</text>
<path d="M29.3,82.353L37.3,82.353" style="fill:none;stroke:#000000;stroke-width:0.5" />
<path d="M29.3,151.89L37.3,151.89" style="fill:none;stroke:#000000;stroke-width:0.5" />
<path d="M29.3,221.42L37.3,221.42" style="fill:none;stroke:#000000;stroke-width:0.5" />
<path d="M29.3,290.95L37.3,290.95" style="fill:none;stroke:#000000;stroke-width:0.5" />
<path d="M33.3,96.26L37.3,96.26" style="fill:none;stroke:#000000;stroke-width:0.5" />
<path d="M33.3,110.17L37.3,110.17" style="fill:none;stroke:#000000;stroke-width:0.5" />
<path d="M33.3,124.07L37.3,124.07" style="fill:none;stroke:#000000;stroke-width:0.5" />
<path d="M33.3,137.98L37.3,137.98" style="fill:none;stroke:#000000;stroke-width:0.5" />
<path d="M33.3,165.79L37.3,165.79" style="fill:none;stroke:#000000;stroke-width:0.5" />
<path d="M33.3,179.7L37.3,179.7" style="fill:none;stroke:#000000;stroke-width:0.5" />
<path d="M33.3,193.61L37.3,193.61" style="fill:none;stroke:#000000;stroke-width:0.5" />
<path d="M33.3,207.51L37.3,207.51" style="fill:none;stroke:#000000;stroke-width:0.5" />
<path d="M33.3,235.33L37.3,235.33" style="fill:none;stroke:#000000;stroke-width:0.5" />
<path d="M33.3,249.23L37.3,249.23" style="fill:none;stroke:#000000;stroke-width:0.5" />
<path d="M33.3,263.14L37.3,263.14" style="fill:none;stroke:#000000;stroke-width:0.5" />
<path d="M33.3,277.05L37.3,277.05" style="fill:none;stroke:#000000;stroke-width:0.5" />
<path d="M37.3,82.353L37.3,290.95" style="fill:none;stroke:#000000;stroke-width:0.5" />
<path d="M74.238,82.353L74.238,111.56L84.238,111.56L84.238,82.353Z" style="fill:#FA8072" />
<path d="M74.238,82.353L74.238,111.56L84.238,111.56L84.238,82.353L74.238,82.353" style="fill:none;stroke:#000000" />
<path d="M103.72,82.353L103.72,142.85L113.72,142.85L113.72,82.353Z" style="fill:#FA8072" />
<path d="M103.72,82.353L103.72,142.85L113.72,142.85L113.72,82.353L103.72,82.353" style="fill:none;stroke:#000000" />
<path d="M133.2,82.353L133.2,185.26L143.2,185.26L143.2,82.353Z" style="fill:#FA8072" />
<path d="M133.2,82.353L133.2,185.26L143.2,185.26L143.2,82.353L133.2,82.353" style="fill:none;stroke:#000000" />
<path d="M162.68,82.353L162.68,192.91L172.68,192.91L172.68,82.353Z" style="fill:#FA8072" />
<path d="M162.68,82.353L162.68,192.91L172.68,192.91L172.68,82.353L162.68,82.353" style="fill:none;stroke:#000000" />
<path d="M192.16,82.353L192.16,229.07L202.16,229.07L202.16,82.353Z" style="fill:#FA8072" />
<path d="M192.16,82.353L192.16,229.07L202.16,229.07L202.16,82.353L192.16,82.353" style="fill:none;stroke:#000000" />
<path d="M221.64,82.353L221.64,290.95L231.64,290.95L231.64,82.353Z" style="fill:#FA8072" />
<path d="M221.64,82.353L221.64,290.95L231.64,290.95L231.64,82.353L221.64,82.353" style="fill:none;stroke:#000000" />
<path d="M251.12,82.353L251.12,127.55L261.12,127.55L261.12,82.353Z" style="fill:#FA8072" />
<path d="M251.12,82.353L251.12,127.55L261.12,127.55L261.12,82.353L251.12,82.353" style="fill:none;stroke:#000000" />
<path d="M280.6,82.353L280.6,253.4L290.6,253.4L290.6,82.353Z" style="fill:#FA8072" />
<path d="M280.6,82.353L280.6,253.4L290.6,253.4L290.6,82.353L280.6,82.353" style="fill:none;stroke:#000000" />
<path d="M310.08,82.353L310.08,290.95L320.08,290.95L320.08,82.353Z" style="fill:#FA8072" />
<path d="M310.08,82.353L310.08,290.95L320.08,290.95L320.08,82.353L310.08,82.353" style="fill:none;stroke:#000000" />
<path d="M339.56,82.353L339.56,290.95L349.56,290.95L349.56,82.353Z" style="fill:#FA8072" />
<path d="M339.56,82.353L339.56,290.95L349.56,290.95L349.56,82.353L339.56,82.353" style="fill:none;stroke:#000000" />
<path d="M369.04,82.353L369.04,290.95L379.04,290.95L379.04,82.353Z" style="fill:#FA8072" />
<path d="M369.04,82.353L369.04,290.95L379.04,290.95L379.04,82.353L369.04,82.353" style="fill:none;stroke:#000000" />
<path d="M398.52,82.353L398.52,290.95L408.52,290.95L408.52,82.353Z" style="fill:#FA8072" />
<path d="M398.52,82.353L398.52,290.95L408.52,290.95L408.52,82.353L398.52,82.353" style="fill:none;stroke:#000000" />
<path d="M84.238,102.77L84.238,120.34" style="fill:none;stroke:#FA8072" />
<path d="M81.738,102.77L86.738,102.77" style="fill:none;stroke:#FA8072" />
<path d="M81.738,120.34L86.738,120.34" style="fill:none;stroke:#FA8072" />
<path d="M113.72,129.73L113.72,155.96" style="fill:none;stroke:#FA8072" />
<path d="M111.22,129.73L116.22,129.73" style="fill:none;stroke:#FA8072" />
<path d="M111.22,155.96L116.22,155.96" style="fill:none;stroke:#FA8072" />
<path d="M143.2,167.89L143.2,202.63" style="fill:none;stroke:#FA8072" />
<path d="M140.7,167.89L145.7,167.89" style="fill:none;stroke:#FA8072" />
<path d="M140.7,202.63L145.7,202.63" style="fill:none;stroke:#FA8072" />
<path d="M172.68,171.08L172.68,214.74" style="fill:none;stroke:#FA8072" />
<path d="M170.18,171.08L175.18,171.08" style="fill:none;stroke:#FA8072" />
<path d="M170.18,214.74L175.18,214.74" style="fill:none;stroke:#FA8072" />
<path d="M202.16,208.4L202.16,249.73" style="fill:none;stroke:#FA8072" />
<path d="M199.66,208.4L204.66,208.4" style="fill:none;stroke:#FA8072" />
<path d="M199.66,249.73L204.66,249.73" style="fill:none;stroke:#FA8072" />
<path d="M231.64,290.95L231.64,290.95" style="fill:none;stroke:#FA8072" />
<path d="M229.14,290.95L234.14,290.95" style="fill:none;stroke:#FA8072" />
<path d="M229.14,290.95L234.14,290.95" style="fill:none;stroke:#FA8072" />
<path d="M261.12,121.76L261.12,133.34" style="fill:none;stroke:#FA8072" />
<path d="M258.62,121.76L263.62,121.76" style="fill:none;stroke:#FA8072" />
<path d="M258.62,133.34L263.62,133.34" style="fill:none;stroke:#FA8072" />
<path d="M290.6,234.09L290.6,272.72" style="fill:none;stroke:#FA8072" />
<path d="M288.1,234.09L293.1,234.09" style="fill:none;stroke:#FA8072" />
<path d="M288.1,272.72L293.1,272.72" style="fill:none;stroke:#FA8072" />
<path d="M320.08,290.95L320.08,290.95" style="fill:none;stroke:#FA8072" />
<path d="M317.58,290.95L322.58,290.95" style="fill:none;stroke:#FA8072" />
<path d="M317.58,290.95L322.58,290.95" style="fill:none;stroke:#FA8072" />
<path d="M349.56,290.95L349.56,290.95" style="fill:none;stroke:#FA8072" />
<path d="M347.06,290.95L352.06,290.95" style="fill:none;stroke:#FA8072" />
<path d="M347.06,290.95L352.06,290.95" style="fill:none;stroke:#FA8072" />
<path d="M379.04,290.95L379.04,290.95" style="fill:none;stroke:#FA8072" />
<path d="M376.54,290.95L381.54,290.95" style="fill:none;stroke:#FA8072" />
<path d="M376.54,290.95L381.54,290.95" style="fill:none;stroke:#FA8072" />
<path d="M408.52,290.95L408.52,290.95" style="fill:none;stroke:#FA8072" />
<path d="M406.02,290.95L411.02,290.95" style="fill:none;stroke:#FA8072" />
<path d="M406.02,290.95L411.02,290.95" style="fill:none;stroke:#FA8072" />
<path d="M84.238,82.353L84.238,156.06L94.238,156.06L94.238,82.353Z" style="fill:#FFA500" />
<path d="M84.238,82.353L84.238,156.06L94.238,156.06L94.238,82.353L84.238,82.353" style="fill:none;stroke:#000000" />
<path d="M113.72,82.353L113.72,194.3L123.72,194.3L123.72,82.353Z" style="fill:#FFA500" />
<path d="M113.72,82.353L113.72,194.3L123.72,194.3L123.72,82.353L113.72,82.353" style="fill:none;stroke:#000000" />
<path d="M143.2,82.353L143.2,272.87L153.2,272.87L153.2,82.353Z" style="fill:#FFA500" />
<path d="M143.2,82.353L143.2,272.87L153.2,272.87L153.2,82.353L143.2,82.353" style="fill:none;stroke:#000000" />
<path d="M172.68,82.353L172.68,284L182.68,284L182.68,82.353Z" style="fill:#FFA500" />
<path d="M172.68,82.353L172.68,284L182.68,284L182.68,82.353L172.68,82.353" style="fill:none;stroke:#000000" />
<path d="M202.16,82.353L202.16,290.95L212.16,290.95L212.16,82.353Z" style="fill:#FFA500" />
<path d="M202.16,82.353L202.16,290.95L212.16,290.95L212.16,82.353L202.16,82.353" style="fill:none;stroke:#000000" />
<path d="M231.64,82.353L231.64,290.95L241.64,290.95L241.64,82.353Z" style="fill:#FFA500" />
<path d="M231.64,82.353L231.64,290.95L241.64,290.95L241.64,82.353L231.64,82.353" style="fill:none;stroke:#000000" />
<path d="M261.12,82.353L261.12,232.54L271.12,232.54L271.12,82.353Z" style="fill:#FFA500" />
<path d="M261.12,82.353L261.12,232.54L271.12,232.54L271.12,82.353L261.12,82.353" style="fill:none;stroke:#000000" />
<path d="M290.6,82.353L290.6,290.95L300.6,290.95L300.6,82.353Z" style="fill:#FFA500" />
<path d="M290.6,82.353L290.6,290.95L300.6,290.95L300.6,82.353L290.6,82.353" style="fill:none;stroke:#000000" />
<path d="M320.08,82.353L320.08,290.95L330.08,290.95L330.08,82.353Z" style="fill:#FFA500" />
<path d="M320.08,82.353L320.08,290.95L330.08,290.95L330.08,82.353L320.08,82.353" style="fill:none;stroke:#000000" />
<path d="M349.56,82.353L349.56,290.95L359.56,290.95L359.56,82.353Z" style="fill:#FFA500" />
<path d="M349.56,82.353L349.56,290.95L359.56,290.95L359.56,82.353L349.56,82.353" style="fill:none;stroke:#000000" />
<path d="M379.04,82.353L379.04,290.95L389.04,290.95L389.04,82.353Z" style="fill:#FFA500" />
<path d="M379.04,82.353L379.04,290.95L389.04,290.95L389.04,82.353L379.04,82.353" style="fill:none;stroke:#000000" />
<path d="M408.52,82.353L408.52,290.95L418.52,290.95L418.52,82.353Z" style="fill:#FFA500" />
<path d="M408.52,82.353L408.52,290.95L418.52,290.95L418.52,82.353L408.52,82.353" style="fill:none;stroke:#000000" />
<path d="M84.238,144.55L84.238,167.56" style="fill:none;stroke:#FFA500" />
<path d="M81.738,144.55L86.738,144.55" style="fill:none;stroke:#FFA500" />
<path d="M81.738,167.56L86.738,167.56" style="fill:none;stroke:#FFA500" />
<path d="M113.72,183.41L113.72,205.19" style="fill:none;stroke:#FFA500" />
<path d="M111.22,183.41L116.22,183.41" style="fill:none;stroke:#FFA500" />
<path d="M111.22,205.19L116.22,205.19" style="fill:none;stroke:#FFA500" />
<path d="M143.2,268.21L143.2,277.53" style="fill:none;stroke:#FFA500" />
<path d="M140.7,268.21L145.7,268.21" style="fill:none;stroke:#FFA500" />
<path d="M140.7,277.53L145.7,277.53" style="fill:none;stroke:#FFA500" />
<path d="M172.68,277.05L172.68,290.95" style="fill:none;stroke:#FFA500" />
<path d="M170.18,277.05L175.18,277.05" style="fill:none;stroke:#FFA500" />
<path d="M170.18,290.95L175.18,290.95" style="fill:none;stroke:#FFA500" />
<path d="M202.16,290.95L202.16,290.95" style="fill:none;stroke:#FFA500" />
<path d="M199.66,290.95L204.66,290.95" style="fill:none;stroke:#FFA500" />
<path d="M199.66,290.95L204.66,290.95" style="fill:none;stroke:#FFA500" />
<path d="M231.64,290.95L231.64,290.95" style="fill:none;stroke:#FFA500" />
<path d="M229.14,290.95L234.14,290.95" style="fill:none;stroke:#FFA500" />
<path d="M229.14,290.95L234.14,290.95" style="fill:none;stroke:#FFA500" />
<path d="M261.12,220.76L261.12,244.33" style="fill:none;stroke:#FFA500" />
<path d="M258.62,220.76L263.62,220.76" style="fill:none;stroke:#FFA500" />
<path d="M258.62,244.33L263.62,244.33" style="fill:none;stroke:#FFA500" />
<path d="M290.6,290.95L290.6,290.95" style="fill:none;stroke:#FFA500" />
<path d="M288.1,290.95L293.1,290.95" style="fill:none;stroke:#FFA500" />
<path d="M288.1,290.95L293.1,290.95" style="fill:none;stroke:#FFA500" />
<path d="M320.08,290.95L320.08,290.95" style="fill:none;stroke:#FFA500" />
<path d="M317.58,290.95L322.58,290.95" style="fill:none;stroke:#FFA500" />
<path d="M317.58,290.95L322.58,290.95" style="fill:none;stroke:#FFA500" />
<path d="M349.56,290.95L349.56,290.95" style="fill:none;stroke:#FFA500" />
<path d="M347.06,290.95L352.06,290.95" style="fill:none;stroke:#FFA500" />
<path d="M347.06,290.95L352.06,290.95" style="fill:none;stroke:#FFA500" />
<path d="M379.04,290.95L379.04,290.95" style="fill:none;stroke:#FFA500" />
<path d="M376.54,290.95L381.54,290.95" style="fill:none;stroke:#FFA500" />
<path d="M376.54,290.95L381.54,290.95" style="fill:none;stroke:#FFA500" />
<path d="M408.52,290.95L408.52,290.95" style="fill:none;stroke:#FFA500" />
<path d="M406.02,290.95L411.02,290.95" style="fill:none;stroke:#FFA500" />
<path d="M406.02,290.95L411.02,290.95" style="fill:none;stroke:#FFA500" />
<path d="M418,284.09L418,295.85L438,295.85L438,284.09Z" style="fill:#FA8072" />
<path d="M418,284.09L418,295.85L438,295.85L438,284.09L418,284.09" style="fill:none;stroke:#000000" />
<text x="333.31" y="-284.33" transform="scale(1, -1)"
	style="font-family:Helvetica;font-weight:normal;font-style:normal;font-size:12px">FirstZero:Mean</text>
<path d="M418,272.33L418,284.09L438,284.09L438,272.33Z" style="fill:#FFA500" />
<path d="M418,272.33L418,284.09L438,284.09L438,272.33L418,272.33" style="fill:none;stroke:#000000" />
<text x="332.62" y="-272.57" transform="scale(1, -1)"
	style="font-family:Helvetica;font-weight:normal;font-style:normal;font-size:12px">NEpochs:Mean</text>
</g>
</svg>
