<?xml version="1.0"?>
<!-- Generated by SVGo and Plotinum VG -->
<svg width="363pt" height="393.38pt" viewBox="0 0 363 393.38"
	xmlns="http://www.w3.org/2000/svg"
	xmlns:xlink="http://www.w3.org/1999/xlink">
<g transform="scale(1, -1) translate(0, -393.38)">
<text x="125.48" y="-381.86" transform="scale(1, -1)"
	style="font-family:Helvetica;font-weight:normal;font-style:normal;font-size:12px">G Time Function Plot</text>
<text x="191.33" y="-3.8789" transform="scale(1, -1)"
	style="font-family:Helvetica;font-weight:normal;font-style:normal;font-size:12px">Time</text>
<text x="43.103" y="-15.599" transform="scale(1, -1)"
	style="font-family:Helvetica;font-weight:normal;font-style:normal;font-size:10px">0</text>
<text x="179.57" y="-15.599" transform="scale(1, -1)"
	style="font-family:Helvetica;font-weight:normal;font-style:normal;font-size:10px">0.09</text>
<text x="322.99" y="-15.599" transform="scale(1, -1)"
	style="font-family:Helvetica;font-weight:normal;font-style:normal;font-size:10px">0.18</text>
<path d="M45.884,25.198L45.884,33.198" style="fill:none;stroke:#000000;stroke-width:0.5" />
<path d="M189.3,25.198L189.3,33.198" style="fill:none;stroke:#000000;stroke-width:0.5" />
<path d="M332.72,25.198L332.72,33.198" style="fill:none;stroke:#000000;stroke-width:0.5" />
<path d="M117.59,29.198L117.59,33.198" style="fill:none;stroke:#000000;stroke-width:0.5" />
<path d="M261.01,29.198L261.01,33.198" style="fill:none;stroke:#000000;stroke-width:0.5" />
<path d="M45.884,33.198L363,33.198" style="fill:none;stroke:#000000;stroke-width:0.5" />
<g transform="rotate(90)">
<text x="199.89" y="11.52" transform="scale(1, -1)"
	style="font-family:Helvetica;font-weight:normal;font-style:normal;font-size:12px">Gs</text>
</g>
<text x="15.398" y="-33.749" transform="scale(1, -1)"
	style="font-family:Helvetica;font-weight:normal;font-style:normal;font-size:10px">0.0</text>
<text x="15.398" y="-201.06" transform="scale(1, -1)"
	style="font-family:Helvetica;font-weight:normal;font-style:normal;font-size:10px">0.5</text>
<text x="15.398" y="-368.38" transform="scale(1, -1)"
	style="font-family:Helvetica;font-weight:normal;font-style:normal;font-size:10px">1.0</text>
<path d="M32.078,38.448L40.078,38.448" style="fill:none;stroke:#000000;stroke-width:0.5" />
<path d="M32.078,205.76L40.078,205.76" style="fill:none;stroke:#000000;stroke-width:0.5" />
<path d="M32.078,373.08L40.078,373.08" style="fill:none;stroke:#000000;stroke-width:0.5" />
<path d="M36.078,71.911L40.078,71.911" style="fill:none;stroke:#000000;stroke-width:0.5" />
<path d="M36.078,105.37L40.078,105.37" style="fill:none;stroke:#000000;stroke-width:0.5" />
<path d="M36.078,138.84L40.078,138.84" style="fill:none;stroke:#000000;stroke-width:0.5" />
<path d="M36.078,172.3L40.078,172.3" style="fill:none;stroke:#000000;stroke-width:0.5" />
<path d="M36.078,239.23L40.078,239.23" style="fill:none;stroke:#000000;stroke-width:0.5" />
<path d="M36.078,272.69L40.078,272.69" style="fill:none;stroke:#000000;stroke-width:0.5" />
<path d="M36.078,306.15L40.078,306.15" style="fill:none;stroke:#000000;stroke-width:0.5" />
<path d="M36.078,339.61L40.078,339.61" style="fill:none;stroke:#000000;stroke-width:0.5" />
<path d="M40.078,38.448L40.078,376.66" style="fill:none;stroke:#000000;stroke-width:0.5" />
<path d="M45.884,38.448L47.477,57.642L49.071,76.026L50.664,93.625L52.258,110.46L53.852,126.57L55.445,141.96L57.039,156.66L58.632,170.7L60.226,184.09L61.819,196.86L63.413,209.02L65.006,220.6L66.6,231.61L68.193,242.08L69.787,252.02L71.381,261.45L72.974,270.39L74.568,278.85L76.161,286.85L77.755,294.4L79.348,301.53L80.942,308.24L82.535,314.55L84.129,320.48L85.723,326.03L87.316,331.22L88.91,336.07L90.503,340.58L92.097,344.77L93.69,348.64L95.284,352.22L96.877,355.51L98.471,358.52L100.06,361.26L101.66,363.74L103.25,365.98L104.85,367.97L106.44,369.74L108.03,371.29L109.63,372.62L111.22,373.75L112.81,374.68L114.41,375.42L116,375.99L117.59,376.38L119.19,376.6L120.78,376.66L122.37,376.58L123.97,376.34L125.56,375.96L127.15,375.45L128.75,374.81L130.34,374.05L131.94,373.17L133.53,372.18L135.12,371.08L136.72,369.88L138.31,368.59L139.9,367.2L141.5,365.72L143.09,364.16L144.68,362.52L146.28,360.8L147.87,359.01L149.46,357.16L151.06,355.24L152.65,353.26L154.25,351.22L155.84,349.13L157.43,346.99L159.03,344.8L160.62,342.56L162.21,340.28L163.81,337.97L165.4,335.62L166.99,333.23L168.59,330.82L170.18,328.37L171.77,325.9L173.37,323.4L174.96,320.88L176.55,318.34L178.15,315.78L179.74,313.21L181.34,310.62L182.93,308.02L184.52,305.4L186.12,302.78L187.71,300.15L189.3,297.52L190.9,294.87L192.49,292.23L194.08,289.58L195.68,286.93L197.27,284.28L198.86,281.64L200.46,278.99L202.05,276.35L203.65,273.72L205.24,271.09L206.83,268.46L208.43,265.84L210.02,263.24L211.61,260.64L213.21,258.05L214.8,255.47L216.39,252.9L217.99,250.34L219.58,247.8L221.17,245.27L222.77,242.75L224.36,240.25L225.95,237.77L227.55,235.29L229.14,232.84L230.74,230.4L232.33,227.98L233.92,225.57L235.52,223.18L237.11,220.81L238.7,218.46L240.3,216.12L241.89,213.81L243.48,211.51L245.08,209.23L246.67,206.97L248.26,204.73L249.86,202.51L251.45,200.31L253.05,198.13L254.64,195.97L256.23,193.83L257.83,191.71L259.42,189.61L261.01,187.53L262.61,185.48L264.2,183.44L265.79,181.42L267.39,179.43L268.98,177.45L270.57,175.5L272.17,173.56L273.76,171.65L275.35,169.76L276.95,167.89L278.54,166.04L280.14,164.21L281.73,162.4L283.32,160.61L284.92,158.84L286.51,157.09L288.1,155.36L289.7,153.65L291.29,151.97L292.88,150.3L294.48,148.65L296.07,147.02L297.66,145.42L299.26,143.83L300.85,142.26L302.45,140.71L304.04,139.18L305.63,137.67L307.23,136.18L308.82,134.7L310.41,133.25L312.01,131.81L313.6,130.4L315.19,129L316.79,127.62L318.38,126.25L319.97,124.91L321.57,123.58L323.16,122.27L324.75,120.98L326.35,119.71L327.94,118.45L329.54,117.21L331.13,115.98L332.72,114.78L334.32,113.59L335.91,112.41L337.5,111.25L339.1,110.11L340.69,108.99L342.28,107.88L343.88,106.78L345.47,105.7L347.06,104.64L348.66,103.59L350.25,102.55L351.85,101.53L353.44,100.53L355.03,99.538L356.63,98.561L358.22,97.599L359.81,96.65L361.41,95.716L363,94.795" style="fill:none;stroke:#000000" />
<path d="M343,372.1L363,372.1" style="fill:none;stroke:#000000" />
<text x="324.33" y="-366.46" transform="scale(1, -1)"
	style="font-family:Helvetica;font-weight:normal;font-style:normal;font-size:12px">Gs</text>
</g>
</svg>
