<?xml version="1.0"?>
<!-- Generated by SVGo and Plotinum VG -->
<svg width="356.62pt" height="393.38pt" viewBox="0 0 356.62 393.38"
	xmlns="http://www.w3.org/2000/svg"
	xmlns:xlink="http://www.w3.org/1999/xlink">
<g transform="scale(1, -1) translate(0, -393.38)">
<text x="130.96" y="-381.86" transform="scale(1, -1)"
	style="font-family:Helvetica;font-weight:normal;font-style:normal;font-size:12px">S-G Function Plot</text>
<text x="197.25" y="-3.8789" transform="scale(1, -1)"
	style="font-family:Helvetica;font-weight:normal;font-style:normal;font-size:12px">S</text>
<text x="43.103" y="-15.599" transform="scale(1, -1)"
	style="font-family:Helvetica;font-weight:normal;font-style:normal;font-size:10px">0</text>
<text x="131.89" y="-15.599" transform="scale(1, -1)"
	style="font-family:Helvetica;font-weight:normal;font-style:normal;font-size:10px">4</text>
<text x="220.67" y="-15.599" transform="scale(1, -1)"
	style="font-family:Helvetica;font-weight:normal;font-style:normal;font-size:10px">8</text>
<text x="306.67" y="-15.599" transform="scale(1, -1)"
	style="font-family:Helvetica;font-weight:normal;font-style:normal;font-size:10px">12</text>
<path d="M45.884,25.198L45.884,33.198" style="fill:none;stroke:#000000;stroke-width:0.5" />
<path d="M134.67,25.198L134.67,33.198" style="fill:none;stroke:#000000;stroke-width:0.5" />
<path d="M223.45,25.198L223.45,33.198" style="fill:none;stroke:#000000;stroke-width:0.5" />
<path d="M312.23,25.198L312.23,33.198" style="fill:none;stroke:#000000;stroke-width:0.5" />
<path d="M68.08,29.198L68.08,33.198" style="fill:none;stroke:#000000;stroke-width:0.5" />
<path d="M90.275,29.198L90.275,33.198" style="fill:none;stroke:#000000;stroke-width:0.5" />
<path d="M112.47,29.198L112.47,33.198" style="fill:none;stroke:#000000;stroke-width:0.5" />
<path d="M156.86,29.198L156.86,33.198" style="fill:none;stroke:#000000;stroke-width:0.5" />
<path d="M179.06,29.198L179.06,33.198" style="fill:none;stroke:#000000;stroke-width:0.5" />
<path d="M201.25,29.198L201.25,33.198" style="fill:none;stroke:#000000;stroke-width:0.5" />
<path d="M245.65,29.198L245.65,33.198" style="fill:none;stroke:#000000;stroke-width:0.5" />
<path d="M267.84,29.198L267.84,33.198" style="fill:none;stroke:#000000;stroke-width:0.5" />
<path d="M290.04,29.198L290.04,33.198" style="fill:none;stroke:#000000;stroke-width:0.5" />
<path d="M334.43,29.198L334.43,33.198" style="fill:none;stroke:#000000;stroke-width:0.5" />
<path d="M356.62,29.198L356.62,33.198" style="fill:none;stroke:#000000;stroke-width:0.5" />
<path d="M45.884,33.198L356.62,33.198" style="fill:none;stroke:#000000;stroke-width:0.5" />
<g transform="rotate(90)">
<text x="170.19" y="11.52" transform="scale(1, -1)"
	style="font-family:Helvetica;font-weight:normal;font-style:normal;font-size:12px">gmax_GABAb</text>
</g>
<text x="15.398" y="-33.749" transform="scale(1, -1)"
	style="font-family:Helvetica;font-weight:normal;font-style:normal;font-size:10px">0.0</text>
<text x="15.398" y="-136.34" transform="scale(1, -1)"
	style="font-family:Helvetica;font-weight:normal;font-style:normal;font-size:10px">0.3</text>
<text x="15.398" y="-238.94" transform="scale(1, -1)"
	style="font-family:Helvetica;font-weight:normal;font-style:normal;font-size:10px">0.6</text>
<text x="15.398" y="-341.54" transform="scale(1, -1)"
	style="font-family:Helvetica;font-weight:normal;font-style:normal;font-size:10px">0.9</text>
<path d="M32.078,38.448L40.078,38.448" style="fill:none;stroke:#000000;stroke-width:0.5" />
<path d="M32.078,141.04L40.078,141.04" style="fill:none;stroke:#000000;stroke-width:0.5" />
<path d="M32.078,243.64L40.078,243.64" style="fill:none;stroke:#000000;stroke-width:0.5" />
<path d="M32.078,346.24L40.078,346.24" style="fill:none;stroke:#000000;stroke-width:0.5" />
<path d="M36.078,72.647L40.078,72.647" style="fill:none;stroke:#000000;stroke-width:0.5" />
<path d="M36.078,106.85L40.078,106.85" style="fill:none;stroke:#000000;stroke-width:0.5" />
<path d="M36.078,175.24L40.078,175.24" style="fill:none;stroke:#000000;stroke-width:0.5" />
<path d="M36.078,209.44L40.078,209.44" style="fill:none;stroke:#000000;stroke-width:0.5" />
<path d="M36.078,277.84L40.078,277.84" style="fill:none;stroke:#000000;stroke-width:0.5" />
<path d="M36.078,312.04L40.078,312.04" style="fill:none;stroke:#000000;stroke-width:0.5" />
<path d="M40.078,38.448L40.078,377.98" style="fill:none;stroke:#000000;stroke-width:0.5" />
<path d="M45.884,40.58L68.08,42.775L90.275,47.172L112.47,55.807L134.67,72.125L156.86,100.84L179.06,145.52L201.25,203.34L223.45,262.59L245.65,310.43L267.84,342.16L290.04,360.56L312.23,370.41L334.43,375.45L356.62,377.98" style="fill:none;stroke:#000000" />
<path d="M336.62,372.1L356.62,372.1" style="fill:none;stroke:#000000" />
<text x="257.25" y="-366.46" transform="scale(1, -1)"
	style="font-family:Helvetica;font-weight:normal;font-style:normal;font-size:12px">gmax_GABAb</text>
</g>
</svg>
