<?xml version="1.0"?>
<!-- Generated by SVGo and Plotinum VG -->
<svg width="363pt" height="393.38pt" viewBox="0 0 363 393.38"
	xmlns="http://www.w3.org/2000/svg"
	xmlns:xlink="http://www.w3.org/1999/xlink">
<g transform="scale(1, -1) translate(0, -393.38)">
<text x="134.48" y="-381.86" transform="scale(1, -1)"
	style="font-family:Helvetica;font-weight:normal;font-style:normal;font-size:12px">V-G Function Plot</text>
<text x="200.44" y="-3.8789" transform="scale(1, -1)"
	style="font-family:Helvetica;font-weight:normal;font-style:normal;font-size:12px">V</text>
<text x="38.657" y="-15.599" transform="scale(1, -1)"
	style="font-family:Helvetica;font-weight:normal;font-style:normal;font-size:10px">-90</text>
<text x="181.18" y="-15.599" transform="scale(1, -1)"
	style="font-family:Helvetica;font-weight:normal;font-style:normal;font-size:10px">-50</text>
<text x="323.71" y="-15.599" transform="scale(1, -1)"
	style="font-family:Helvetica;font-weight:normal;font-style:normal;font-size:10px">-10</text>
<path d="M45.884,25.198L45.884,33.198" style="fill:none;stroke:#000000;stroke-width:0.5" />
<path d="M188.41,25.198L188.41,33.198" style="fill:none;stroke:#000000;stroke-width:0.5" />
<path d="M330.93,25.198L330.93,33.198" style="fill:none;stroke:#000000;stroke-width:0.5" />
<path d="M81.515,29.198L81.515,33.198" style="fill:none;stroke:#000000;stroke-width:0.5" />
<path d="M117.15,29.198L117.15,33.198" style="fill:none;stroke:#000000;stroke-width:0.5" />
<path d="M152.78,29.198L152.78,33.198" style="fill:none;stroke:#000000;stroke-width:0.5" />
<path d="M224.04,29.198L224.04,33.198" style="fill:none;stroke:#000000;stroke-width:0.5" />
<path d="M259.67,29.198L259.67,33.198" style="fill:none;stroke:#000000;stroke-width:0.5" />
<path d="M295.3,29.198L295.3,33.198" style="fill:none;stroke:#000000;stroke-width:0.5" />
<path d="M45.884,33.198L363,33.198" style="fill:none;stroke:#000000;stroke-width:0.5" />
<g transform="rotate(90)">
<text x="181.53" y="11.52" transform="scale(1, -1)"
	style="font-family:Helvetica;font-weight:normal;font-style:normal;font-size:12px">g_GABAb</text>
</g>
<text x="15.398" y="-33.749" transform="scale(1, -1)"
	style="font-family:Helvetica;font-weight:normal;font-style:normal;font-size:10px">0.0</text>
<text x="15.398" y="-175.21" transform="scale(1, -1)"
	style="font-family:Helvetica;font-weight:normal;font-style:normal;font-size:10px">0.5</text>
<text x="15.398" y="-316.67" transform="scale(1, -1)"
	style="font-family:Helvetica;font-weight:normal;font-style:normal;font-size:10px">1.0</text>
<path d="M32.078,38.448L40.078,38.448" style="fill:none;stroke:#000000;stroke-width:0.5" />
<path d="M32.078,179.91L40.078,179.91" style="fill:none;stroke:#000000;stroke-width:0.5" />
<path d="M32.078,321.37L40.078,321.37" style="fill:none;stroke:#000000;stroke-width:0.5" />
<path d="M36.078,66.741L40.078,66.741" style="fill:none;stroke:#000000;stroke-width:0.5" />
<path d="M36.078,95.033L40.078,95.033" style="fill:none;stroke:#000000;stroke-width:0.5" />
<path d="M36.078,123.33L40.078,123.33" style="fill:none;stroke:#000000;stroke-width:0.5" />
<path d="M36.078,151.62L40.078,151.62" style="fill:none;stroke:#000000;stroke-width:0.5" />
<path d="M36.078,208.2L40.078,208.2" style="fill:none;stroke:#000000;stroke-width:0.5" />
<path d="M36.078,236.5L40.078,236.5" style="fill:none;stroke:#000000;stroke-width:0.5" />
<path d="M36.078,264.79L40.078,264.79" style="fill:none;stroke:#000000;stroke-width:0.5" />
<path d="M36.078,293.08L40.078,293.08" style="fill:none;stroke:#000000;stroke-width:0.5" />
<path d="M36.078,349.67L40.078,349.67" style="fill:none;stroke:#000000;stroke-width:0.5" />
<path d="M36.078,377.96L40.078,377.96" style="fill:none;stroke:#000000;stroke-width:0.5" />
<path d="M40.078,38.448L40.078,377.98" style="fill:none;stroke:#000000;stroke-width:0.5" />
<path d="M45.884,38.448L49.447,109.11L53.01,169.43L56.573,220.23L60.136,262.32L63.699,296.51L67.262,323.61L70.826,344.36L74.389,359.51L77.952,369.75L81.515,375.7L85.078,377.98L88.641,377.11L92.204,373.6L95.767,367.89L99.33,360.38L102.89,351.42L106.46,341.33L110.02,330.38L113.58,318.8L117.15,306.81L120.71,294.57L124.27,282.23L127.84,269.92L131.4,257.74L134.96,245.78L138.52,234.1L142.09,222.75L145.65,211.79L149.21,201.23L152.78,191.11L156.34,181.43L159.9,172.21L163.47,163.44L167.03,155.12L170.59,147.25L174.16,139.81L177.72,132.8L181.28,126.21L184.84,120.01L188.41,114.19L191.97,108.74L195.53,103.64L199.1,98.873L202.66,94.421L206.22,90.268L209.79,86.397L213.35,82.793L216.91,79.44L220.48,76.322L224.04,73.427L227.6,70.739L231.17,68.245L234.73,65.933L238.29,63.791L241.85,61.808L245.42,59.972L248.98,58.274L252.54,56.705L256.11,55.254L259.67,53.914L263.23,52.677L266.8,51.535L270.36,50.481L273.92,49.51L277.49,48.614L281.05,47.789L284.61,47.028L288.17,46.328L291.74,45.683L295.3,45.09L298.86,44.544L302.43,44.042L305.99,43.58L309.55,43.155L313.12,42.765L316.68,42.406L320.24,42.077L323.81,41.774L327.37,41.496L330.93,41.241L334.5,41.007L338.06,40.792L341.62,40.595L345.18,40.414L348.75,40.248L352.31,40.096L355.87,39.957L359.44,39.829L363,39.712" style="fill:none;stroke:#000000" />
<path d="M343,372.1L363,372.1" style="fill:none;stroke:#000000" />
<text x="286.3" y="-366.46" transform="scale(1, -1)"
	style="font-family:Helvetica;font-weight:normal;font-style:normal;font-size:12px">g_GABAb</text>
</g>
</svg>
