<?xml version="1.0"?>
<!-- Generated by SVGo and Plotinum VG -->
<svg width="363pt" height="393.38pt" viewBox="0 0 363 393.38"
	xmlns="http://www.w3.org/2000/svg"
	xmlns:xlink="http://www.w3.org/1999/xlink">
<g transform="scale(1, -1) translate(0, -393.38)">
<text x="146.48" y="-381.86" transform="scale(1, -1)"
	style="font-family:Helvetica;font-weight:normal;font-style:normal;font-size:12px">Function Plot</text>
<text x="199.05" y="-3.8789" transform="scale(1, -1)"
	style="font-family:Helvetica;font-weight:normal;font-style:normal;font-size:12px">V</text>
<text x="35.879" y="-15.599" transform="scale(1, -1)"
	style="font-family:Helvetica;font-weight:normal;font-style:normal;font-size:10px">-90</text>
<text x="179.65" y="-15.599" transform="scale(1, -1)"
	style="font-family:Helvetica;font-weight:normal;font-style:normal;font-size:10px">-50</text>
<text x="323.42" y="-15.599" transform="scale(1, -1)"
	style="font-family:Helvetica;font-weight:normal;font-style:normal;font-size:10px">-10</text>
<path d="M43.105,25.198L43.105,33.198" style="fill:none;stroke:#000000;stroke-width:0.5" />
<path d="M186.88,25.198L186.88,33.198" style="fill:none;stroke:#000000;stroke-width:0.5" />
<path d="M330.65,25.198L330.65,33.198" style="fill:none;stroke:#000000;stroke-width:0.5" />
<path d="M79.049,29.198L79.049,33.198" style="fill:none;stroke:#000000;stroke-width:0.5" />
<path d="M114.99,29.198L114.99,33.198" style="fill:none;stroke:#000000;stroke-width:0.5" />
<path d="M150.94,29.198L150.94,33.198" style="fill:none;stroke:#000000;stroke-width:0.5" />
<path d="M222.82,29.198L222.82,33.198" style="fill:none;stroke:#000000;stroke-width:0.5" />
<path d="M258.76,29.198L258.76,33.198" style="fill:none;stroke:#000000;stroke-width:0.5" />
<path d="M294.71,29.198L294.71,33.198" style="fill:none;stroke:#000000;stroke-width:0.5" />
<path d="M43.105,33.198L363,33.198" style="fill:none;stroke:#000000;stroke-width:0.5" />
<g transform="rotate(90)">
<text x="183.87" y="11.52" transform="scale(1, -1)"
	style="font-family:Helvetica;font-weight:normal;font-style:normal;font-size:12px">g_NMDA</text>
</g>
<text x="20.96" y="-33.749" transform="scale(1, -1)"
	style="font-family:Helvetica;font-weight:normal;font-style:normal;font-size:10px">0</text>
<text x="20.96" y="-190.56" transform="scale(1, -1)"
	style="font-family:Helvetica;font-weight:normal;font-style:normal;font-size:10px">5</text>
<text x="15.398" y="-347.37" transform="scale(1, -1)"
	style="font-family:Helvetica;font-weight:normal;font-style:normal;font-size:10px">10</text>
<path d="M29.3,38.448L37.3,38.448" style="fill:none;stroke:#000000;stroke-width:0.5" />
<path d="M29.3,195.26L37.3,195.26" style="fill:none;stroke:#000000;stroke-width:0.5" />
<path d="M29.3,352.07L37.3,352.07" style="fill:none;stroke:#000000;stroke-width:0.5" />
<path d="M33.3,69.81L37.3,69.81" style="fill:none;stroke:#000000;stroke-width:0.5" />
<path d="M33.3,101.17L37.3,101.17" style="fill:none;stroke:#000000;stroke-width:0.5" />
<path d="M33.3,132.53L37.3,132.53" style="fill:none;stroke:#000000;stroke-width:0.5" />
<path d="M33.3,163.9L37.3,163.9" style="fill:none;stroke:#000000;stroke-width:0.5" />
<path d="M33.3,226.62L37.3,226.62" style="fill:none;stroke:#000000;stroke-width:0.5" />
<path d="M33.3,257.98L37.3,257.98" style="fill:none;stroke:#000000;stroke-width:0.5" />
<path d="M33.3,289.34L37.3,289.34" style="fill:none;stroke:#000000;stroke-width:0.5" />
<path d="M33.3,320.71L37.3,320.71" style="fill:none;stroke:#000000;stroke-width:0.5" />
<path d="M37.3,38.448L37.3,377.98" style="fill:none;stroke:#000000;stroke-width:0.5" />
<path d="M43.105,75.958L46.7,77.88L50.294,79.893L53.888,82.001L57.483,84.208L61.077,86.516L64.671,88.931L68.266,91.455L71.86,94.094L75.454,96.85L79.049,99.729L82.643,102.73L86.237,105.87L89.832,109.13L93.426,112.54L97.02,116.09L100.61,119.78L104.21,123.62L107.8,127.62L111.4,131.77L114.99,136.08L118.59,140.55L122.18,145.18L125.77,149.98L129.37,154.95L132.96,160.08L136.56,165.39L140.15,170.86L143.75,176.5L147.34,182.31L150.94,188.28L154.53,194.41L158.12,200.7L161.72,207.14L165.31,213.73L168.91,220.45L172.5,227.29L176.1,234.25L179.69,241.32L183.28,248.47L186.88,255.7L190.47,262.98L194.07,270.3L197.66,277.64L201.26,284.96L204.85,292.25L208.44,299.48L212.04,306.62L215.63,313.64L219.23,320.5L222.82,327.17L226.42,333.62L230.01,339.79L233.6,345.66L237.2,351.18L240.79,356.31L244.39,361L247.98,365.22L251.58,368.91L255.17,372.03L258.76,374.55L262.36,376.4L265.95,377.56L269.55,377.98L273.14,377.62L276.74,376.44L280.33,374.41L283.92,371.5L287.52,367.67L291.11,362.9L294.71,357.17L298.3,350.46L301.9,342.76L305.49,334.04L309.09,324.31L312.68,313.56L316.27,301.79L319.87,289.01L323.46,275.22L327.06,260.44L330.65,244.68L334.25,227.96L337.84,210.3L341.43,191.72L345.03,172.25L348.62,151.92L352.22,130.76L355.81,108.8L359.41,86.071L363,62.609" style="fill:none;stroke:#000000" />
<path d="M343,372.1L363,372.1" style="fill:none;stroke:#000000" />
<text x="290.99" y="-366.46" transform="scale(1, -1)"
	style="font-family:Helvetica;font-weight:normal;font-style:normal;font-size:12px">g_NMDA</text>
</g>
</svg>
